<mxfile host="app.diagrams.net" modified="2024-12-17T06:17:34.781Z" agent="Mozilla/5.0 (Windows NT 10.0; Win64; x64) AppleWebKit/537.36 (KHTML, like Gecko) Chrome/131.0.0.0 Safari/537.36 Edg/131.0.0.0" etag="x7NM4Ajfc7LkWJXaCptY" version="22.1.18" type="device">
  <diagram name="Page-1" id="MpDhWvNqIPPZ1VU7uxHc">
    <mxGraphModel dx="1426" dy="781" grid="1" gridSize="10" guides="1" tooltips="1" connect="1" arrows="1" fold="1" page="1" pageScale="1" pageWidth="850" pageHeight="1100" math="0" shadow="0">
      <root>
        <mxCell id="0" />
        <mxCell id="1" parent="0" />
        <mxCell id="1UN2wflZGpVDiCDR-yqw-5" value="" style="edgeStyle=orthogonalEdgeStyle;rounded=0;orthogonalLoop=1;jettySize=auto;html=1;" edge="1" parent="1" source="1UN2wflZGpVDiCDR-yqw-2" target="1UN2wflZGpVDiCDR-yqw-4">
          <mxGeometry relative="1" as="geometry" />
        </mxCell>
        <mxCell id="1UN2wflZGpVDiCDR-yqw-2" value="Display Main Menu" style="shape=parallelogram;perimeter=parallelogramPerimeter;whiteSpace=wrap;html=1;fixedSize=1;strokeWidth=2;" vertex="1" parent="1">
          <mxGeometry x="343" y="150" width="165" height="40" as="geometry" />
        </mxCell>
        <mxCell id="1UN2wflZGpVDiCDR-yqw-7" value="" style="edgeStyle=orthogonalEdgeStyle;rounded=0;orthogonalLoop=1;jettySize=auto;html=1;" edge="1" parent="1" source="1UN2wflZGpVDiCDR-yqw-4" target="1UN2wflZGpVDiCDR-yqw-6">
          <mxGeometry relative="1" as="geometry" />
        </mxCell>
        <mxCell id="1UN2wflZGpVDiCDR-yqw-4" value="Get User choice" style="shape=parallelogram;perimeter=parallelogramPerimeter;whiteSpace=wrap;html=1;fixedSize=1;strokeWidth=2;" vertex="1" parent="1">
          <mxGeometry x="343" y="240" width="165" height="40" as="geometry" />
        </mxCell>
        <mxCell id="1UN2wflZGpVDiCDR-yqw-9" style="edgeStyle=orthogonalEdgeStyle;rounded=0;orthogonalLoop=1;jettySize=auto;html=1;exitX=1;exitY=0.5;exitDx=0;exitDy=0;entryX=0;entryY=0.5;entryDx=0;entryDy=0;" edge="1" parent="1" source="1UN2wflZGpVDiCDR-yqw-6" target="1UN2wflZGpVDiCDR-yqw-8">
          <mxGeometry relative="1" as="geometry" />
        </mxCell>
        <mxCell id="1UN2wflZGpVDiCDR-yqw-12" value="" style="edgeStyle=orthogonalEdgeStyle;rounded=0;orthogonalLoop=1;jettySize=auto;html=1;" edge="1" parent="1" source="1UN2wflZGpVDiCDR-yqw-6" target="1UN2wflZGpVDiCDR-yqw-11">
          <mxGeometry relative="1" as="geometry" />
        </mxCell>
        <mxCell id="1UN2wflZGpVDiCDR-yqw-6" value="If&amp;nbsp;&lt;br&gt;Choice = 1" style="rhombus;whiteSpace=wrap;html=1;strokeWidth=2;" vertex="1" parent="1">
          <mxGeometry x="373" y="340" width="104.5" height="100" as="geometry" />
        </mxCell>
        <mxCell id="1UN2wflZGpVDiCDR-yqw-31" style="edgeStyle=orthogonalEdgeStyle;rounded=0;orthogonalLoop=1;jettySize=auto;html=1;exitX=1;exitY=0.5;exitDx=0;exitDy=0;endArrow=none;endFill=0;" edge="1" parent="1" source="1UN2wflZGpVDiCDR-yqw-8">
          <mxGeometry relative="1" as="geometry">
            <mxPoint x="840" y="390" as="targetPoint" />
          </mxGeometry>
        </mxCell>
        <mxCell id="1UN2wflZGpVDiCDR-yqw-8" value="Display Available Products" style="shape=parallelogram;perimeter=parallelogramPerimeter;whiteSpace=wrap;html=1;fixedSize=1;strokeWidth=2;" vertex="1" parent="1">
          <mxGeometry x="550" y="370" width="190" height="40" as="geometry" />
        </mxCell>
        <mxCell id="1UN2wflZGpVDiCDR-yqw-14" style="edgeStyle=orthogonalEdgeStyle;rounded=0;orthogonalLoop=1;jettySize=auto;html=1;exitX=0;exitY=0.5;exitDx=0;exitDy=0;entryX=1;entryY=0.5;entryDx=0;entryDy=0;" edge="1" parent="1" source="1UN2wflZGpVDiCDR-yqw-11" target="1UN2wflZGpVDiCDR-yqw-13">
          <mxGeometry relative="1" as="geometry" />
        </mxCell>
        <mxCell id="1UN2wflZGpVDiCDR-yqw-23" value="" style="edgeStyle=orthogonalEdgeStyle;rounded=0;orthogonalLoop=1;jettySize=auto;html=1;" edge="1" parent="1" source="1UN2wflZGpVDiCDR-yqw-11" target="1UN2wflZGpVDiCDR-yqw-22">
          <mxGeometry relative="1" as="geometry" />
        </mxCell>
        <mxCell id="1UN2wflZGpVDiCDR-yqw-11" value="If&amp;nbsp;&lt;br&gt;Choice = 2" style="rhombus;whiteSpace=wrap;html=1;strokeWidth=2;" vertex="1" parent="1">
          <mxGeometry x="373" y="520" width="104.5" height="100" as="geometry" />
        </mxCell>
        <mxCell id="1UN2wflZGpVDiCDR-yqw-16" value="" style="edgeStyle=orthogonalEdgeStyle;rounded=0;orthogonalLoop=1;jettySize=auto;html=1;" edge="1" parent="1" source="1UN2wflZGpVDiCDR-yqw-13" target="1UN2wflZGpVDiCDR-yqw-15">
          <mxGeometry relative="1" as="geometry" />
        </mxCell>
        <mxCell id="1UN2wflZGpVDiCDR-yqw-13" value="Get Customer Name, Product ID&lt;br&gt;&amp;amp; Quantity" style="shape=parallelogram;perimeter=parallelogramPerimeter;whiteSpace=wrap;html=1;fixedSize=1;strokeWidth=2;" vertex="1" parent="1">
          <mxGeometry x="100" y="550" width="205" height="40" as="geometry" />
        </mxCell>
        <mxCell id="1UN2wflZGpVDiCDR-yqw-20" style="edgeStyle=orthogonalEdgeStyle;rounded=0;orthogonalLoop=1;jettySize=auto;html=1;exitX=0.5;exitY=0;exitDx=0;exitDy=0;entryX=0.5;entryY=1;entryDx=0;entryDy=0;" edge="1" parent="1" source="1UN2wflZGpVDiCDR-yqw-15" target="1UN2wflZGpVDiCDR-yqw-18">
          <mxGeometry relative="1" as="geometry" />
        </mxCell>
        <mxCell id="1UN2wflZGpVDiCDR-yqw-15" value="Update Inventory &amp;amp; Sales History" style="whiteSpace=wrap;html=1;strokeWidth=2;" vertex="1" parent="1">
          <mxGeometry x="131.25" y="420" width="142.5" height="60" as="geometry" />
        </mxCell>
        <mxCell id="1UN2wflZGpVDiCDR-yqw-38" style="edgeStyle=orthogonalEdgeStyle;rounded=0;orthogonalLoop=1;jettySize=auto;html=1;exitX=0.5;exitY=0;exitDx=0;exitDy=0;endArrow=none;endFill=0;" edge="1" parent="1" source="1UN2wflZGpVDiCDR-yqw-18">
          <mxGeometry relative="1" as="geometry">
            <mxPoint x="202.5" y="170" as="targetPoint" />
          </mxGeometry>
        </mxCell>
        <mxCell id="1UN2wflZGpVDiCDR-yqw-18" value="Display Sale Information" style="shape=parallelogram;perimeter=parallelogramPerimeter;whiteSpace=wrap;html=1;fixedSize=1;strokeWidth=2;" vertex="1" parent="1">
          <mxGeometry x="100" y="320" width="205" height="40" as="geometry" />
        </mxCell>
        <mxCell id="1UN2wflZGpVDiCDR-yqw-25" style="edgeStyle=orthogonalEdgeStyle;rounded=0;orthogonalLoop=1;jettySize=auto;html=1;exitX=1;exitY=0.5;exitDx=0;exitDy=0;entryX=0;entryY=0.5;entryDx=0;entryDy=0;" edge="1" parent="1" source="1UN2wflZGpVDiCDR-yqw-22" target="1UN2wflZGpVDiCDR-yqw-24">
          <mxGeometry relative="1" as="geometry" />
        </mxCell>
        <mxCell id="1UN2wflZGpVDiCDR-yqw-33" value="" style="edgeStyle=orthogonalEdgeStyle;rounded=0;orthogonalLoop=1;jettySize=auto;html=1;" edge="1" parent="1" source="1UN2wflZGpVDiCDR-yqw-22" target="1UN2wflZGpVDiCDR-yqw-32">
          <mxGeometry relative="1" as="geometry" />
        </mxCell>
        <mxCell id="1UN2wflZGpVDiCDR-yqw-22" value="If&amp;nbsp;&lt;br&gt;Choice = 3" style="rhombus;whiteSpace=wrap;html=1;strokeWidth=2;" vertex="1" parent="1">
          <mxGeometry x="373" y="700" width="104.5" height="100" as="geometry" />
        </mxCell>
        <mxCell id="1UN2wflZGpVDiCDR-yqw-27" style="edgeStyle=orthogonalEdgeStyle;rounded=0;orthogonalLoop=1;jettySize=auto;html=1;exitX=0.5;exitY=0;exitDx=0;exitDy=0;entryX=0.5;entryY=1;entryDx=0;entryDy=0;" edge="1" parent="1" source="1UN2wflZGpVDiCDR-yqw-24" target="1UN2wflZGpVDiCDR-yqw-26">
          <mxGeometry relative="1" as="geometry" />
        </mxCell>
        <mxCell id="1UN2wflZGpVDiCDR-yqw-24" value="Get Sale ID and Quantities of returned product" style="shape=parallelogram;perimeter=parallelogramPerimeter;whiteSpace=wrap;html=1;fixedSize=1;strokeWidth=2;" vertex="1" parent="1">
          <mxGeometry x="542.5" y="730" width="205" height="40" as="geometry" />
        </mxCell>
        <mxCell id="1UN2wflZGpVDiCDR-yqw-29" style="edgeStyle=orthogonalEdgeStyle;rounded=0;orthogonalLoop=1;jettySize=auto;html=1;exitX=0.5;exitY=0;exitDx=0;exitDy=0;entryX=0.5;entryY=1;entryDx=0;entryDy=0;" edge="1" parent="1" source="1UN2wflZGpVDiCDR-yqw-26" target="1UN2wflZGpVDiCDR-yqw-28">
          <mxGeometry relative="1" as="geometry" />
        </mxCell>
        <mxCell id="1UN2wflZGpVDiCDR-yqw-26" value="Update Inventory &amp;amp; Sales History" style="whiteSpace=wrap;html=1;strokeWidth=2;" vertex="1" parent="1">
          <mxGeometry x="573.75" y="600" width="142.5" height="60" as="geometry" />
        </mxCell>
        <mxCell id="1UN2wflZGpVDiCDR-yqw-30" style="edgeStyle=orthogonalEdgeStyle;rounded=0;orthogonalLoop=1;jettySize=auto;html=1;exitX=1;exitY=0.5;exitDx=0;exitDy=0;entryX=1;entryY=0.5;entryDx=0;entryDy=0;" edge="1" parent="1" source="1UN2wflZGpVDiCDR-yqw-28" target="1UN2wflZGpVDiCDR-yqw-2">
          <mxGeometry relative="1" as="geometry">
            <Array as="points">
              <mxPoint x="840" y="520" />
              <mxPoint x="840" y="170" />
            </Array>
          </mxGeometry>
        </mxCell>
        <mxCell id="1UN2wflZGpVDiCDR-yqw-28" value="Display Returned product Information&lt;br&gt;&amp;amp; Refund Amount" style="shape=parallelogram;perimeter=parallelogramPerimeter;whiteSpace=wrap;html=1;fixedSize=1;strokeWidth=2;" vertex="1" parent="1">
          <mxGeometry x="526.25" y="500" width="237.5" height="40" as="geometry" />
        </mxCell>
        <mxCell id="1UN2wflZGpVDiCDR-yqw-35" style="edgeStyle=orthogonalEdgeStyle;rounded=0;orthogonalLoop=1;jettySize=auto;html=1;exitX=0;exitY=0.5;exitDx=0;exitDy=0;entryX=1;entryY=0.5;entryDx=0;entryDy=0;" edge="1" parent="1" source="1UN2wflZGpVDiCDR-yqw-32" target="1UN2wflZGpVDiCDR-yqw-34">
          <mxGeometry relative="1" as="geometry" />
        </mxCell>
        <mxCell id="1UN2wflZGpVDiCDR-yqw-40" value="" style="edgeStyle=orthogonalEdgeStyle;rounded=0;orthogonalLoop=1;jettySize=auto;html=1;" edge="1" parent="1" source="1UN2wflZGpVDiCDR-yqw-32" target="1UN2wflZGpVDiCDR-yqw-39">
          <mxGeometry relative="1" as="geometry" />
        </mxCell>
        <mxCell id="1UN2wflZGpVDiCDR-yqw-32" value="If&amp;nbsp;&lt;br&gt;Choice = 4" style="rhombus;whiteSpace=wrap;html=1;strokeWidth=2;" vertex="1" parent="1">
          <mxGeometry x="373" y="880" width="104.5" height="100" as="geometry" />
        </mxCell>
        <mxCell id="1UN2wflZGpVDiCDR-yqw-36" style="edgeStyle=orthogonalEdgeStyle;rounded=0;orthogonalLoop=1;jettySize=auto;html=1;exitX=0;exitY=0.5;exitDx=0;exitDy=0;entryX=0;entryY=0.5;entryDx=0;entryDy=0;" edge="1" parent="1" source="1UN2wflZGpVDiCDR-yqw-34" target="1UN2wflZGpVDiCDR-yqw-2">
          <mxGeometry relative="1" as="geometry">
            <Array as="points">
              <mxPoint x="30" y="930" />
              <mxPoint x="30" y="170" />
            </Array>
          </mxGeometry>
        </mxCell>
        <mxCell id="1UN2wflZGpVDiCDR-yqw-34" value="Display Sales History" style="shape=parallelogram;perimeter=parallelogramPerimeter;whiteSpace=wrap;html=1;fixedSize=1;strokeWidth=2;" vertex="1" parent="1">
          <mxGeometry x="107.5" y="910" width="190" height="40" as="geometry" />
        </mxCell>
        <mxCell id="1UN2wflZGpVDiCDR-yqw-42" style="edgeStyle=orthogonalEdgeStyle;rounded=0;orthogonalLoop=1;jettySize=auto;html=1;exitX=1;exitY=0.5;exitDx=0;exitDy=0;" edge="1" parent="1" source="1UN2wflZGpVDiCDR-yqw-39" target="1UN2wflZGpVDiCDR-yqw-41">
          <mxGeometry relative="1" as="geometry" />
        </mxCell>
        <mxCell id="1UN2wflZGpVDiCDR-yqw-47" value="" style="edgeStyle=orthogonalEdgeStyle;rounded=0;orthogonalLoop=1;jettySize=auto;html=1;" edge="1" parent="1" source="1UN2wflZGpVDiCDR-yqw-39" target="1UN2wflZGpVDiCDR-yqw-46">
          <mxGeometry relative="1" as="geometry" />
        </mxCell>
        <mxCell id="1UN2wflZGpVDiCDR-yqw-39" value="If&amp;nbsp;&lt;br&gt;Choice = 5" style="rhombus;whiteSpace=wrap;html=1;strokeWidth=2;" vertex="1" parent="1">
          <mxGeometry x="373" y="1060" width="104.5" height="100" as="geometry" />
        </mxCell>
        <mxCell id="1UN2wflZGpVDiCDR-yqw-44" value="" style="edgeStyle=orthogonalEdgeStyle;rounded=0;orthogonalLoop=1;jettySize=auto;html=1;" edge="1" parent="1" source="1UN2wflZGpVDiCDR-yqw-41" target="1UN2wflZGpVDiCDR-yqw-43">
          <mxGeometry relative="1" as="geometry" />
        </mxCell>
        <mxCell id="1UN2wflZGpVDiCDR-yqw-41" value="Get Customer Name from User" style="shape=parallelogram;perimeter=parallelogramPerimeter;whiteSpace=wrap;html=1;fixedSize=1;strokeWidth=2;" vertex="1" parent="1">
          <mxGeometry x="542.5" y="1090" width="205" height="40" as="geometry" />
        </mxCell>
        <mxCell id="1UN2wflZGpVDiCDR-yqw-45" style="edgeStyle=orthogonalEdgeStyle;rounded=0;orthogonalLoop=1;jettySize=auto;html=1;exitX=1;exitY=0.5;exitDx=0;exitDy=0;endArrow=none;endFill=0;" edge="1" parent="1" source="1UN2wflZGpVDiCDR-yqw-43">
          <mxGeometry relative="1" as="geometry">
            <mxPoint x="840" y="520" as="targetPoint" />
            <Array as="points">
              <mxPoint x="840" y="990" />
            </Array>
          </mxGeometry>
        </mxCell>
        <mxCell id="1UN2wflZGpVDiCDR-yqw-43" value="Display Customer&#39;s Transaction History" style="shape=parallelogram;perimeter=parallelogramPerimeter;whiteSpace=wrap;html=1;fixedSize=1;strokeWidth=2;" vertex="1" parent="1">
          <mxGeometry x="542.5" y="970" width="205" height="40" as="geometry" />
        </mxCell>
        <mxCell id="1UN2wflZGpVDiCDR-yqw-49" style="edgeStyle=orthogonalEdgeStyle;rounded=0;orthogonalLoop=1;jettySize=auto;html=1;exitX=0;exitY=0.5;exitDx=0;exitDy=0;entryX=1;entryY=0.5;entryDx=0;entryDy=0;" edge="1" parent="1" source="1UN2wflZGpVDiCDR-yqw-46" target="1UN2wflZGpVDiCDR-yqw-48">
          <mxGeometry relative="1" as="geometry" />
        </mxCell>
        <mxCell id="1UN2wflZGpVDiCDR-yqw-52" value="" style="edgeStyle=orthogonalEdgeStyle;rounded=0;orthogonalLoop=1;jettySize=auto;html=1;" edge="1" parent="1" source="1UN2wflZGpVDiCDR-yqw-46" target="1UN2wflZGpVDiCDR-yqw-51">
          <mxGeometry relative="1" as="geometry" />
        </mxCell>
        <mxCell id="1UN2wflZGpVDiCDR-yqw-46" value="If&amp;nbsp;&lt;br&gt;Choice = 6" style="rhombus;whiteSpace=wrap;html=1;strokeWidth=2;" vertex="1" parent="1">
          <mxGeometry x="373" y="1240" width="104.5" height="100" as="geometry" />
        </mxCell>
        <mxCell id="1UN2wflZGpVDiCDR-yqw-50" style="edgeStyle=orthogonalEdgeStyle;rounded=0;orthogonalLoop=1;jettySize=auto;html=1;exitX=0;exitY=0.5;exitDx=0;exitDy=0;endArrow=none;endFill=0;" edge="1" parent="1" source="1UN2wflZGpVDiCDR-yqw-48">
          <mxGeometry relative="1" as="geometry">
            <mxPoint x="30" y="930" as="targetPoint" />
          </mxGeometry>
        </mxCell>
        <mxCell id="1UN2wflZGpVDiCDR-yqw-48" value="Display Return History" style="shape=parallelogram;perimeter=parallelogramPerimeter;whiteSpace=wrap;html=1;fixedSize=1;strokeWidth=2;" vertex="1" parent="1">
          <mxGeometry x="107.5" y="1270" width="190" height="40" as="geometry" />
        </mxCell>
        <mxCell id="1UN2wflZGpVDiCDR-yqw-55" style="edgeStyle=orthogonalEdgeStyle;rounded=0;orthogonalLoop=1;jettySize=auto;html=1;exitX=1;exitY=0.5;exitDx=0;exitDy=0;" edge="1" parent="1" source="1UN2wflZGpVDiCDR-yqw-51" target="1UN2wflZGpVDiCDR-yqw-53">
          <mxGeometry relative="1" as="geometry" />
        </mxCell>
        <mxCell id="1UN2wflZGpVDiCDR-yqw-51" value="If&amp;nbsp;&lt;br&gt;Choice = 7" style="rhombus;whiteSpace=wrap;html=1;strokeWidth=2;" vertex="1" parent="1">
          <mxGeometry x="373" y="1420" width="104.5" height="100" as="geometry" />
        </mxCell>
        <mxCell id="1UN2wflZGpVDiCDR-yqw-54" style="edgeStyle=orthogonalEdgeStyle;rounded=0;orthogonalLoop=1;jettySize=auto;html=1;exitX=1;exitY=0.5;exitDx=0;exitDy=0;endArrow=none;endFill=0;" edge="1" parent="1" source="1UN2wflZGpVDiCDR-yqw-53">
          <mxGeometry relative="1" as="geometry">
            <mxPoint x="840" y="990" as="targetPoint" />
          </mxGeometry>
        </mxCell>
        <mxCell id="1UN2wflZGpVDiCDR-yqw-53" value="Display Invalid Choice Message" style="shape=parallelogram;perimeter=parallelogramPerimeter;whiteSpace=wrap;html=1;fixedSize=1;strokeWidth=2;" vertex="1" parent="1">
          <mxGeometry x="542.5" y="1450" width="205" height="40" as="geometry" />
        </mxCell>
        <mxCell id="1UN2wflZGpVDiCDR-yqw-57" style="edgeStyle=orthogonalEdgeStyle;rounded=0;orthogonalLoop=1;jettySize=auto;html=1;exitX=0.5;exitY=1;exitDx=0;exitDy=0;exitPerimeter=0;entryX=0.5;entryY=0;entryDx=0;entryDy=0;" edge="1" parent="1" source="1UN2wflZGpVDiCDR-yqw-56" target="1UN2wflZGpVDiCDR-yqw-2">
          <mxGeometry relative="1" as="geometry" />
        </mxCell>
        <mxCell id="1UN2wflZGpVDiCDR-yqw-56" value="Start" style="strokeWidth=2;html=1;shape=mxgraph.flowchart.start_1;whiteSpace=wrap;" vertex="1" parent="1">
          <mxGeometry x="375.5" y="10" width="100" height="60" as="geometry" />
        </mxCell>
        <mxCell id="1UN2wflZGpVDiCDR-yqw-58" value="End" style="strokeWidth=2;html=1;shape=mxgraph.flowchart.start_1;whiteSpace=wrap;" vertex="1" parent="1">
          <mxGeometry x="375" y="1580" width="100" height="60" as="geometry" />
        </mxCell>
        <mxCell id="1UN2wflZGpVDiCDR-yqw-59" style="edgeStyle=orthogonalEdgeStyle;rounded=0;orthogonalLoop=1;jettySize=auto;html=1;exitX=0.5;exitY=1;exitDx=0;exitDy=0;entryX=0.5;entryY=0;entryDx=0;entryDy=0;entryPerimeter=0;" edge="1" parent="1" source="1UN2wflZGpVDiCDR-yqw-51" target="1UN2wflZGpVDiCDR-yqw-58">
          <mxGeometry relative="1" as="geometry" />
        </mxCell>
        <mxCell id="1UN2wflZGpVDiCDR-yqw-60" value="Yes" style="text;html=1;align=center;verticalAlign=middle;resizable=0;points=[];autosize=1;strokeColor=none;fillColor=none;" vertex="1" parent="1">
          <mxGeometry x="475.5" y="360" width="40" height="30" as="geometry" />
        </mxCell>
        <mxCell id="1UN2wflZGpVDiCDR-yqw-62" value="Yes" style="text;html=1;align=center;verticalAlign=middle;resizable=0;points=[];autosize=1;strokeColor=none;fillColor=none;" vertex="1" parent="1">
          <mxGeometry x="330" y="540" width="40" height="30" as="geometry" />
        </mxCell>
        <mxCell id="1UN2wflZGpVDiCDR-yqw-63" value="Yes" style="text;html=1;align=center;verticalAlign=middle;resizable=0;points=[];autosize=1;strokeColor=none;fillColor=none;" vertex="1" parent="1">
          <mxGeometry x="477.5" y="720" width="40" height="30" as="geometry" />
        </mxCell>
        <mxCell id="1UN2wflZGpVDiCDR-yqw-64" value="Yes" style="text;html=1;align=center;verticalAlign=middle;resizable=0;points=[];autosize=1;strokeColor=none;fillColor=none;" vertex="1" parent="1">
          <mxGeometry x="333" y="900" width="40" height="30" as="geometry" />
        </mxCell>
        <mxCell id="1UN2wflZGpVDiCDR-yqw-65" value="Yes" style="text;html=1;align=center;verticalAlign=middle;resizable=0;points=[];autosize=1;strokeColor=none;fillColor=none;" vertex="1" parent="1">
          <mxGeometry x="477.5" y="1080" width="40" height="30" as="geometry" />
        </mxCell>
        <mxCell id="1UN2wflZGpVDiCDR-yqw-66" value="Yes" style="text;html=1;align=center;verticalAlign=middle;resizable=0;points=[];autosize=1;strokeColor=none;fillColor=none;" vertex="1" parent="1">
          <mxGeometry x="333" y="1260" width="40" height="30" as="geometry" />
        </mxCell>
        <mxCell id="1UN2wflZGpVDiCDR-yqw-67" value="Yes" style="text;html=1;align=center;verticalAlign=middle;resizable=0;points=[];autosize=1;strokeColor=none;fillColor=none;" vertex="1" parent="1">
          <mxGeometry x="425" y="1520" width="40" height="30" as="geometry" />
        </mxCell>
        <mxCell id="1UN2wflZGpVDiCDR-yqw-68" value="No" style="text;html=1;align=center;verticalAlign=middle;resizable=0;points=[];autosize=1;strokeColor=none;fillColor=none;" vertex="1" parent="1">
          <mxGeometry x="477.5" y="1440" width="40" height="30" as="geometry" />
        </mxCell>
        <mxCell id="1UN2wflZGpVDiCDR-yqw-69" value="No" style="text;html=1;align=center;verticalAlign=middle;resizable=0;points=[];autosize=1;strokeColor=none;fillColor=none;" vertex="1" parent="1">
          <mxGeometry x="425" y="1160" width="40" height="30" as="geometry" />
        </mxCell>
        <mxCell id="1UN2wflZGpVDiCDR-yqw-70" value="No" style="text;html=1;align=center;verticalAlign=middle;resizable=0;points=[];autosize=1;strokeColor=none;fillColor=none;" vertex="1" parent="1">
          <mxGeometry x="425" y="1340" width="40" height="30" as="geometry" />
        </mxCell>
        <mxCell id="1UN2wflZGpVDiCDR-yqw-71" value="No" style="text;html=1;align=center;verticalAlign=middle;resizable=0;points=[];autosize=1;strokeColor=none;fillColor=none;" vertex="1" parent="1">
          <mxGeometry x="425" y="980" width="40" height="30" as="geometry" />
        </mxCell>
        <mxCell id="1UN2wflZGpVDiCDR-yqw-72" value="No" style="text;html=1;align=center;verticalAlign=middle;resizable=0;points=[];autosize=1;strokeColor=none;fillColor=none;" vertex="1" parent="1">
          <mxGeometry x="425" y="800" width="40" height="30" as="geometry" />
        </mxCell>
        <mxCell id="1UN2wflZGpVDiCDR-yqw-73" value="No" style="text;html=1;align=center;verticalAlign=middle;resizable=0;points=[];autosize=1;strokeColor=none;fillColor=none;" vertex="1" parent="1">
          <mxGeometry x="425" y="620" width="40" height="30" as="geometry" />
        </mxCell>
        <mxCell id="1UN2wflZGpVDiCDR-yqw-74" value="No" style="text;html=1;align=center;verticalAlign=middle;resizable=0;points=[];autosize=1;strokeColor=none;fillColor=none;" vertex="1" parent="1">
          <mxGeometry x="425" y="440" width="40" height="30" as="geometry" />
        </mxCell>
      </root>
    </mxGraphModel>
  </diagram>
</mxfile>
